<svg xmlns="http://www.w3.org/2000/svg" version="1.1" xmlns:xlink="http://www.w3.org/1999/xlink" xmlns:svgjs="http://svgjs.dev/svgjs" width="2000" height="1500" viewBox="0 0 2000 1500"><rect width="2000" height="1500" fill="#003366"></rect><g transform="matrix(0.75,0,0,0.75,248.95224700102938,150.80047554788712)"><svg viewBox="0 0 296 237" data-background-color="#003366" preserveAspectRatio="xMidYMid meet" height="1601" width="2000" xmlns="http://www.w3.org/2000/svg" xmlns:xlink="http://www.w3.org/1999/xlink"><g id="tight-bounds" transform="matrix(1,0,0,1,0.206756591796875,-0.23201141357421307)"><svg viewBox="0 0 295.58648681640625 237.46401977539062" height="237.46401977539062" width="295.58648681640625"><g><svg></svg></g><g><svg viewBox="0 0 295.58648681640625 237.46401977539062" height="237.46401977539062" width="295.58648681640625"><g transform="matrix(1,0,0,1,-49.96675109863281,-9.735977172851562)"><path xmlns="http://www.w3.org/2000/svg" d="M49.967 237.464v-227.728h295.586v227.728h-53.861v-5.96h47.901v-215.808h-283.666v215.808l47.901 0 0 5.96z" fill="#ffffff" fill-rule="nonzero" stroke="none" stroke-width="1" stroke-linecap="butt" stroke-linejoin="miter" stroke-miterlimit="10" stroke-dasharray="" stroke-dashoffset="0" font-family="none" font-weight="none" font-size="none" text-anchor="none" style="mix-blend-mode: normal" data-fill-palette-color="tertiary"></path><g><path xmlns="http://www.w3.org/2000/svg" d="M129.704 241.754v0c-0.715 0-1.448-0.087-2.202-0.26v0 3.534c1.294 0.328 2.124 0.589 2.491 0.782v0l-0.115 1.39h-7.561l-0.116-0.956 1.912-0.724v-15.989l-2.114-0.029-0.29-1.391c1.352-0.56 2.868-0.879 4.548-0.956v0 0.029l1.245 1.13v1.159l3.216-2.173 1.1-0.116c1.545 0 2.819 0.647 3.824 1.941 1.004 1.294 1.506 2.906 1.506 4.837v0c0 2.24-0.699 4.098-2.097 5.574-1.402 1.479-3.184 2.219-5.347 2.218zM130.254 229.936v0c-0.695 0-1.612 0.328-2.752 0.985v0 8.082c0.966 0.444 1.97 0.666 3.013 0.666v0l0.84-0.058c0.676-0.463 1.213-1.159 1.61-2.086 0.394-0.927 0.591-1.892 0.591-2.896v0c0-1.275-0.303-2.375-0.909-3.303-0.61-0.927-1.408-1.39-2.393-1.39zM149.053 234.136l-7.386-0.116c0 1.641 0.431 2.916 1.292 3.824 0.857 0.908 1.952 1.361 3.284 1.361v0c1.043 0 2.279-0.328 3.708-0.985v0l0.522 1.362-4.519 2.143c-2.24 0.116-4.078-0.492-5.515-1.824-1.441-1.332-2.161-3.07-2.161-5.214v0c0-2.086 0.672-3.878 2.016-5.377 1.34-1.495 2.966-2.242 4.878-2.242v0c1.622 0 2.96 0.506 4.014 1.518 1.051 1.016 1.566 2.325 1.547 3.928v0zM143.926 229.038v0c-1.023 0.579-1.709 1.661-2.056 3.244v0l5.648-0.289c-0.154-0.888-0.564-1.609-1.228-2.161-0.668-0.548-1.456-0.813-2.364-0.794zM158.178 238.945v0c0.521 0 1.371-0.183 2.549-0.551v0l0.376 1.391-4.084 1.998c-0.772 0.039-1.506-0.232-2.202-0.811-0.695-0.579-1.043-1.217-1.042-1.912v0-8.834l-1.883 0.029-0.174-1.449c0.792-0.444 1.526-0.782 2.202-1.013v0l1.274-3.708h1.68l0.232 3.621h4.055l0.087 1.042-1.39 1.536h-2.694v7.183c0 0.541 0.073 0.923 0.22 1.147 0.143 0.22 0.407 0.33 0.794 0.331zM173.703 230.486v0c0 0.579 0.241 1.047 0.725 1.402 0.483 0.359 1.226 0.761 2.23 1.205v0l1.941 0.985c1.526 0.869 2.288 2.047 2.288 3.534v0c0 1.255-0.492 2.284-1.477 3.088-0.985 0.799-2.259 1.199-3.824 1.199v0c-1.777 0-3.592-0.512-5.445-1.535v0l1.274-2.955c1.738 1.255 3.592 2.076 5.562 2.463v0c0.463-0.406 0.695-0.898 0.695-1.478v0c0-0.541-0.197-1-0.591-1.379-0.398-0.375-1.321-0.89-2.769-1.546-1.448-0.657-2.433-1.3-2.955-1.929-0.521-0.626-0.782-1.354-0.782-2.185v0c0-1.313 0.56-2.356 1.68-3.128 1.12-0.772 2.491-1.159 4.113-1.159v0c1.487 0 2.81 0.299 3.969 0.898v0h0.029l0.029 0.696c0 1.081-0.174 2.134-0.522 3.157v0h-1.882l-0.435-2.433c-1.023-0.328-1.979-0.463-2.868-0.406v0c-0.657 0.348-0.985 0.85-0.984 1.506zM198.528 238.887l0.347 1.274-3.215 1.622c-0.406-0.039-0.859-0.29-1.361-0.753-0.502-0.463-0.859-0.985-1.072-1.564v0c-1.931 1.313-3.698 2.086-5.301 2.317v0c-0.599-0.097-1.201-0.357-1.808-0.782-0.61-0.425-1.041-0.884-1.291-1.379-0.251-0.49-0.377-1.489-0.377-2.995v0-7.096l-2.144-0.029-0.289-1.391c1.352-0.56 2.868-0.879 4.548-0.956v0 0.029l1.274 1.13v8.458c0.058 1.564 0.686 2.346 1.883 2.346v0c0.908 0 2.008-0.367 3.302-1.1v0-8.487l-1.999-0.058-0.289-1.391c1.352-0.579 2.81-0.888 4.374-0.927v0l1.303 1.159v10.167c0 0.406 0.251 0.608 0.753 0.608v0zM207.449 241.754v0c-0.715 0-1.448-0.087-2.201-0.26v0 3.534c1.294 0.328 2.124 0.589 2.491 0.782v0l-0.116 1.39h-7.56l-0.116-0.956 1.912-0.724v-15.989l-2.115-0.029-0.289-1.391c1.352-0.56 2.868-0.879 4.547-0.956v0 0.029l1.246 1.13v1.159l3.215-2.173 1.101-0.116c1.545 0 2.819 0.647 3.823 1.941 1.004 1.294 1.506 2.906 1.507 4.837v0c0 2.24-0.699 4.098-2.098 5.574-1.402 1.479-3.184 2.219-5.347 2.218zM208 229.936v0c-0.695 0-1.612 0.328-2.752 0.985v0 8.082c0.966 0.444 1.97 0.666 3.012 0.666v0l0.84-0.058c0.676-0.463 1.213-1.159 1.611-2.086 0.394-0.927 0.591-1.892 0.591-2.896v0c0-1.275-0.303-2.375-0.91-3.303-0.61-0.927-1.408-1.39-2.392-1.39zM223.873 241.754v0c-0.715 0-1.448-0.087-2.201-0.26v0 3.534c1.294 0.328 2.124 0.589 2.491 0.782v0l-0.116 1.39h-7.56l-0.116-0.956 1.912-0.724v-15.989l-2.115-0.029-0.29-1.391c1.352-0.56 2.868-0.879 4.548-0.956v0 0.029l1.246 1.13v1.159l3.215-2.173 1.101-0.116c1.545 0 2.819 0.647 3.823 1.941 1.004 1.294 1.506 2.906 1.506 4.837v0c0 2.24-0.699 4.098-2.097 5.574-1.402 1.479-3.184 2.219-5.347 2.218zM224.423 229.936v0c-0.695 0-1.612 0.328-2.751 0.985v0 8.082c0.966 0.444 1.97 0.666 3.012 0.666v0l0.84-0.058c0.676-0.463 1.213-1.159 1.611-2.086 0.394-0.927 0.591-1.892 0.591-2.896v0c0-1.275-0.303-2.375-0.91-3.303-0.61-0.927-1.408-1.39-2.393-1.39zM237.719 221.159v18.075c0.888 0.154 1.574 0.386 2.057 0.695v0l-0.116 1.391h-7.416l-0.116-0.985c0.56-0.29 1.294-0.57 2.202-0.84v0-17.09l-2.173-0.058-0.289-1.39c1.332-0.541 2.848-0.859 4.548-0.956v0zM244.758 224.925v0c-1.062-0.444-1.941-1.12-2.636-2.028v0c0.579-1.159 1.294-2.037 2.143-2.636v0c0.985 0.444 1.825 1.159 2.52 2.144v0c-0.444 1.081-1.12 1.921-2.027 2.52zM246.293 228.314v10.92c0.888 0.154 1.574 0.386 2.057 0.695v0l-0.116 1.391h-7.416l-0.115-0.985c0.56-0.29 1.294-0.57 2.201-0.84v0-9.964l-2.173-0.029-0.289-1.391c1.332-0.541 2.848-0.859 4.548-0.956v0zM260.168 234.136l-7.387-0.116c0 1.641 0.431 2.916 1.292 3.824 0.857 0.908 1.952 1.361 3.285 1.361v0c1.043 0 2.279-0.328 3.708-0.985v0l0.521 1.362-4.519 2.143c-2.24 0.116-4.08-0.492-5.52-1.824-1.437-1.332-2.155-3.07-2.156-5.214v0c0-2.086 0.67-3.878 2.011-5.377 1.344-1.495 2.972-2.242 4.883-2.242v0c1.622 0 2.96 0.506 4.015 1.518 1.051 1.016 1.566 2.325 1.547 3.928v0zM255.041 229.038v0c-1.023 0.579-1.709 1.661-2.057 3.244v0l5.649-0.289c-0.154-0.888-0.564-1.609-1.229-2.161-0.668-0.548-1.456-0.813-2.363-0.794zM266.627 230.486v0c0 0.579 0.241 1.047 0.724 1.402 0.483 0.359 1.226 0.761 2.231 1.205v0l1.941 0.985c1.526 0.869 2.288 2.047 2.288 3.534v0c0 1.255-0.492 2.284-1.477 3.088-0.985 0.799-2.259 1.199-3.824 1.199v0c-1.777 0-3.592-0.512-5.446-1.535v0l1.275-2.955c1.738 1.255 3.592 2.076 5.562 2.463v0c0.463-0.406 0.695-0.898 0.695-1.478v0c0-0.541-0.199-1-0.597-1.379-0.394-0.375-1.315-0.89-2.763-1.546-1.448-0.657-2.433-1.3-2.955-1.929-0.521-0.626-0.782-1.354-0.782-2.185v0c0-1.313 0.56-2.356 1.68-3.128 1.12-0.772 2.491-1.159 4.113-1.159v0c1.487 0 2.81 0.299 3.969 0.898v0h0.029l0.029 0.696c0 1.081-0.174 2.134-0.522 3.157v0h-1.883l-0.434-2.433c-1.023-0.328-1.979-0.463-2.868-0.406v0c-0.657 0.348-0.985 0.85-0.985 1.506z" fill="#ff9966" fill-rule="nonzero" stroke="none" stroke-width="1" stroke-linecap="butt" stroke-linejoin="miter" stroke-miterlimit="10" stroke-dasharray="" stroke-dashoffset="0" font-family="none" font-weight="none" font-size="none" text-anchor="none" style="mix-blend-mode: normal" data-fill-palette-color="secondary"></path></g></g><g transform="matrix(1,0,0,1,23.115287674158893,32.21200988769532)"><svg viewBox="0 0 249.35591146808846 173.04" height="173.04" width="249.35591146808846"><g><svg viewBox="0 0 316.416 219.57620462110845" height="173.04" width="249.35591146808846"><g transform="matrix(1,0,0,1,0,135.70690341628915)"><svg viewBox="0 0 316.416 83.86930120481928" height="83.86930120481928" width="316.416"><g id="textblocktransform"><svg viewBox="0 0 316.416 83.86930120481928" height="83.86930120481928" width="316.416" id="textblock"><g><svg viewBox="0 0 316.416 83.86930120481928" height="83.86930120481928" width="316.416"><g transform="matrix(1,0,0,1,0,0)"><svg width="316.416" viewBox="2.7799999713897705 -26.899999618530273 103.34000396728516 27.389999389648438" height="83.86930120481928" data-palette-color="#ffffff"><path d="M21.31 0L16.82 0Q16.43-0.85 16.26-2.88L16.26-2.88Q13.96 0.49 10.4 0.49L10.4 0.49Q6.81 0.49 4.8-1.53 2.78-3.54 2.78-7.2L2.78-7.2Q2.78-11.23 5.52-13.6 8.25-15.97 13.01-16.02L13.01-16.02 16.19-16.02 16.19-18.82Q16.19-21.19 15.14-22.19 14.09-23.19 11.94-23.19L11.94-23.19Q9.99-23.19 8.76-22.03 7.54-20.87 7.54-19.09L7.54-19.09 3.22-19.09Q3.22-21.12 4.42-22.96 5.62-24.8 7.64-25.85 9.67-26.9 12.16-26.9L12.16-26.9Q16.21-26.9 18.32-24.89 20.43-22.88 20.48-19.02L20.48-19.02 20.48-5.69Q20.51-2.64 21.31-0.39L21.31-0.39 21.31 0ZM11.06-3.44L11.06-3.44Q12.65-3.44 14.09-4.32 15.53-5.2 16.19-6.52L16.19-6.52 16.19-12.82 13.75-12.82Q10.67-12.77 8.89-11.44 7.1-10.11 7.1-7.71L7.1-7.71Q7.1-5.47 8.01-4.46 8.91-3.44 11.06-3.44ZM36.35-3.2L36.35-3.2Q38.5-3.2 39.79-4.53 41.09-5.86 41.21-8.33L41.21-8.33 45.29-8.33Q45.14-4.52 42.59-2.01 40.04 0.49 36.35 0.49L36.35 0.49Q31.44 0.49 28.87-2.6 26.29-5.69 26.29-11.79L26.29-11.79 26.29-14.7Q26.29-20.68 28.85-23.79 31.42-26.9 36.33-26.9L36.33-26.9Q40.38-26.9 42.76-24.34 45.14-21.78 45.29-17.33L45.29-17.33 41.21-17.33Q41.06-20.26 39.8-21.73 38.55-23.19 36.33-23.19L36.33-23.19Q33.44-23.19 32.05-21.3 30.66-19.41 30.61-15.09L30.61-15.09 30.61-11.72Q30.61-7.06 31.99-5.13 33.37-3.2 36.35-3.2ZM50.29-26.42L54.34-26.42 54.44-23.97Q56.86-26.9 60.81-26.9L60.81-26.9Q65.23-26.9 66.99-23.07L66.99-23.07Q69.48-26.9 73.92-26.9L73.92-26.9Q81.22-26.9 81.39-17.8L81.39-17.8 81.39 0 77.09 0 77.09-17.38Q77.09-20.26 76.07-21.67 75.04-23.07 72.6-23.07L72.6-23.07Q70.65-23.07 69.43-21.56 68.21-20.04 68.01-17.7L68.01-17.7 68.01 0 63.67 0 63.67-17.58Q63.59-23.07 59.2-23.07L59.2-23.07Q55.93-23.07 54.58-19.8L54.58-19.8 54.58 0 50.29 0 50.29-26.42ZM97.33 0.49L97.33 0.49Q92.4 0.49 89.76-2.45 87.13-5.4 87.08-11.08L87.08-11.08 87.08-14.28Q87.08-20.19 89.65-23.55 92.23-26.9 96.84-26.9L96.84-26.9Q101.48-26.9 103.78-23.95 106.07-21 106.12-14.75L106.12-14.75 106.12-11.91 91.37-11.91 91.37-11.3Q91.37-7.06 92.97-5.13 94.57-3.2 97.58-3.2L97.58-3.2Q99.48-3.2 100.93-3.92 102.39-4.64 103.65-6.2L103.65-6.2 105.9-3.47Q103.09 0.49 97.33 0.49ZM96.84-23.19L96.84-23.19Q94.16-23.19 92.86-21.35 91.57-19.51 91.4-15.63L91.4-15.63 101.8-15.63 101.8-16.21Q101.63-19.97 100.44-21.58 99.26-23.19 96.84-23.19Z" opacity="1" transform="matrix(1,0,0,1,0,0)" fill="#ffffff" class="undefined-text-0" data-fill-palette-color="primary" id="text-0"></path></svg></g></svg></g></svg></g></svg></g><g transform="matrix(1,0,0,1,116.6545085883115,0)"><svg viewBox="0 0 83.10698282337701 115.90737426506024" height="115.90737426506024" width="83.10698282337701"><g><svg xmlns="http://www.w3.org/2000/svg" xmlns:xlink="http://www.w3.org/1999/xlink" version="1.1" x="0" y="0" viewBox="11.99661922454834 0.7180004119873047 70.46937561035156 98.28199768066406" enable-background="new 0 0 100 100" xml:space="preserve" height="115.90737426506024" width="83.10698282337701" class="icon-icon-0" data-fill-palette-color="accent" id="icon-0"><path d="M78.145 94.255L64.9 30.442c4.664-5.837 12.566-10.411 12.566-10.411l3.015-10.451L57.823 8.736l-1.462-8.018L34.34 53.39 22.478 90.057c-2.164-1.028-6.174-3.531-10.188-9.166 0 0-1.592 9.185 2.641 14.404C16.625 97.386 19.961 99 19.961 99h11.696H50.27h24.481c0-5.626-14.593-6.731-14.593-6.731 0-0.888-0.061-2.269-0.167-2.269h-0.163c0 0 0.033-1.654-0.617-3.688-0.02-0.062-0.037-0.264-0.059-0.324-0.034-0.104-0.074-0.284-0.114-0.393-0.388-1.052-0.86-2.067-1.403-2.976-2.237-3.713-6.753-8.108-15.88-10.865l1.422-2.558c0 0 10.452 2.241 16.018 9.799l3.149-10.657L70.141 92c0.01 0 0.021 0 0.031 0 0.101 0 7.585 2.08 7.585 7h4.709C82.466 99 81.57 95.521 78.145 94.255z" fill="#ff9966" data-fill-palette-color="accent"></path></svg></g></svg></g><g></g></svg></g></svg></g></svg></g><defs></defs></svg><rect width="295.58648681640625" height="237.46401977539062" fill="none" stroke="none" visibility="hidden"></rect></g></svg></g></svg>